<svg width="20" height="20" viewBox="0 0 20 20" fill="none" xmlns="http://www.w3.org/2000/svg">
<path d="M15.8333 3.33325H4.16667C3.24619 3.33325 2.5 4.07944 2.5 4.99992V16.6666C2.5 17.5871 3.24619 18.3333 4.16667 18.3333H15.8333C16.7538 18.3333 17.5 17.5871 17.5 16.6666V4.99992C17.5 4.07944 16.7538 3.33325 15.8333 3.33325Z" stroke="#C1C1C1" stroke-width="2" stroke-linecap="round" stroke-linejoin="round"/>
<path d="M13.333 1.66675V5.00008" stroke="#C1C1C1" stroke-width="2" stroke-linecap="round" stroke-linejoin="round"/>
<path d="M6.66699 1.66675V5.00008" stroke="#C1C1C1" stroke-width="2" stroke-linecap="round" stroke-linejoin="round"/>
<path d="M2.5 8.33325H17.5" stroke="#C1C1C1" stroke-width="2" stroke-linecap="round" stroke-linejoin="round"/>
<rect x="4.58366" y="10.4167" width="0.833333" height="0.833333" fill="#171717" stroke="#C1C1C1" stroke-width="0.833333"/>
<rect x="4.58366" y="12.9167" width="0.833333" height="0.833333" fill="#171717" stroke="#C1C1C1" stroke-width="0.833333"/>
<rect x="4.58366" y="15.4167" width="0.833333" height="0.833333" fill="#171717" stroke="#C1C1C1" stroke-width="0.833333"/>
<rect x="7.91667" y="15.4167" width="0.833333" height="0.833333" fill="#171717" stroke="#C1C1C1" stroke-width="0.833333"/>
<rect x="7.91667" y="12.9167" width="0.833333" height="0.833333" fill="#171717" stroke="#C1C1C1" stroke-width="0.833333"/>
<rect x="11.2507" y="12.9167" width="0.833333" height="0.833333" fill="#171717" stroke="#C1C1C1" stroke-width="0.833333"/>
<rect x="11.2507" y="15.4167" width="0.833333" height="0.833333" fill="#171717" stroke="#C1C1C1" stroke-width="0.833333"/>
<rect x="14.5837" y="12.9167" width="0.833333" height="0.833333" fill="#171717" stroke="#C1C1C1" stroke-width="0.833333"/>
<rect x="7.91667" y="10.4167" width="0.833333" height="0.833333" fill="#171717" stroke="#C1C1C1" stroke-width="0.833333"/>
<rect x="11.2507" y="10.4167" width="0.833333" height="0.833333" fill="#171717" stroke="#C1C1C1" stroke-width="0.833333"/>
<rect x="14.5837" y="10.4167" width="0.833333" height="0.833333" fill="#171717" stroke="#C1C1C1" stroke-width="0.833333"/>
</svg>
