<svg width="20" height="20" viewBox="0 0 20 20" fill="none" xmlns="http://www.w3.org/2000/svg">
<path d="M15.8333 3.33325H4.16667C3.24619 3.33325 2.5 4.07944 2.5 4.99992V16.6666C2.5 17.5871 3.24619 18.3333 4.16667 18.3333H15.8333C16.7538 18.3333 17.5 17.5871 17.5 16.6666V4.99992C17.5 4.07944 16.7538 3.33325 15.8333 3.33325Z" stroke="black" stroke-width="2" stroke-linecap="round" stroke-linejoin="round"/>
<path d="M13.334 1.66675V5.00008" stroke="black" stroke-width="2" stroke-linecap="round" stroke-linejoin="round"/>
<path d="M6.66602 1.66675V5.00008" stroke="black" stroke-width="2" stroke-linecap="round" stroke-linejoin="round"/>
<path d="M2.5 8.33325H17.5" stroke="black" stroke-width="2" stroke-linecap="round" stroke-linejoin="round"/>
<rect x="4.16602" y="10" width="1.66667" height="1.66667" fill="#171717"/>
<rect x="4.16602" y="12.5" width="1.66667" height="1.66667" fill="#171717"/>
<rect x="4.16602" y="15" width="1.66667" height="1.66667" fill="#171717"/>
<rect x="7.5" y="15" width="1.66667" height="1.66667" fill="#171717"/>
<rect x="7.5" y="12.5" width="1.66667" height="1.66667" fill="#171717"/>
<rect x="10.832" y="12.5" width="1.66667" height="1.66667" fill="#171717"/>
<rect x="10.832" y="15" width="1.66667" height="1.66667" fill="#171717"/>
<rect x="14.166" y="12.5" width="1.66667" height="1.66667" fill="#171717"/>
<rect x="7.5" y="10" width="1.66667" height="1.66667" fill="#171717"/>
<rect x="10.832" y="10" width="1.66667" height="1.66667" fill="#171717"/>
<rect x="14.166" y="10" width="1.66667" height="1.66667" fill="#171717"/>
</svg>
