<svg width="18" height="20" viewBox="0 0 18 20" fill="none" xmlns="http://www.w3.org/2000/svg">
<path d="M1 4.6001H2.77778H17" stroke="white" stroke-width="2" stroke-linecap="round" stroke-linejoin="round"/>
<path d="M15.2218 4.6V17.2C15.2218 17.6774 15.0345 18.1352 14.7011 18.4728C14.3677 18.8104 13.9155 19 13.444 19H4.55512C4.08363 19 3.63144 18.8104 3.29804 18.4728C2.96464 18.1352 2.77734 17.6774 2.77734 17.2V4.6M5.44401 4.6V2.8C5.44401 2.32261 5.63131 1.86477 5.96471 1.52721C6.29811 1.18964 6.75029 1 7.22179 1H10.7773C11.2488 1 11.701 1.18964 12.0344 1.52721C12.3678 1.86477 12.5551 2.32261 12.5551 2.8V4.6" stroke="white" stroke-width="2" stroke-linecap="round" stroke-linejoin="round"/>
<path d="M7.22266 9.1001V14.5001" stroke="white" stroke-width="2" stroke-linecap="round" stroke-linejoin="round"/>
<path d="M10.7773 9.1001V14.5001" stroke="white" stroke-width="2" stroke-linecap="round" stroke-linejoin="round"/>
</svg>
