<svg width="18" height="20" viewBox="0 0 18 20" fill="none" xmlns="http://www.w3.org/2000/svg">
<path d="M1 4.6001H2.77778H17" stroke="#F85640" stroke-width="2" stroke-linecap="round" stroke-linejoin="round"/>
<path d="M15.2223 4.6V17.2C15.2223 17.6774 15.035 18.1352 14.7016 18.4728C14.3682 18.8104 13.916 19 13.4445 19H4.55561C4.08411 19 3.63193 18.8104 3.29853 18.4728C2.96513 18.1352 2.77783 17.6774 2.77783 17.2V4.6M5.4445 4.6V2.8C5.4445 2.32261 5.6318 1.86477 5.9652 1.52721C6.2986 1.18964 6.75078 1 7.22228 1H10.7778C11.2493 1 11.7015 1.18964 12.0349 1.52721C12.3683 1.86477 12.5556 2.32261 12.5556 2.8V4.6" stroke="#F85640" stroke-width="2" stroke-linecap="round" stroke-linejoin="round"/>
<path d="M7.22217 9.1001V14.5001" stroke="#F85640" stroke-width="2" stroke-linecap="round" stroke-linejoin="round"/>
<path d="M10.7778 9.1001V14.5001" stroke="#F85640" stroke-width="2" stroke-linecap="round" stroke-linejoin="round"/>
</svg>
